<?xml version="1.0" encoding="UTF-8"?>
<svg width="58px" height="58px" viewBox="0 0 58 58" version="1.1" xmlns="http://www.w3.org/2000/svg" xmlns:xlink="http://www.w3.org/1999/xlink">
    <!-- Generator: Sketch 44 (41411) - http://www.bohemiancoding.com/sketch -->
    <title>icon_q_symbol_red_bg</title>
    <desc>Created with Sketch.</desc>
    <defs></defs>
    <g id="Page-1" stroke="none" stroke-width="1" fill="none" fill-rule="evenodd">
        <g id="icon_q_symbol_red_bg" transform="translate(5.000000, 5.000000)" fill-rule="nonzero">
            <g id="feed2" fill="#B92B27">
                <g id="regular">
                    <path d="M-1.20759091,53 C-3.29690909,53 -5,51.2995455 -5,49.2089091 L-5,-1.20759091 C-5,-3.29822727 -3.29690909,-5 -1.20759091,-5 L49.2075909,-5 C51.2982273,-5 53,-3.29822727 53,-1.20759091 L53,49.2089091 C53,51.2995455 51.2982273,53 49.2075909,53 L-1.20759091,53 L-1.20759091,53 L-1.20759091,53 Z" id="Fill-16"></path>
                </g>
            </g>
            <path d="M42.5888889,35.0695652 L39.7933333,35.0695652 C39.7111111,36.3086957 39.0533333,37.5478261 37.4088889,37.5478261 C35.8466667,37.5478261 34.86,36.3913043 33.7088889,34.6565217 C37.82,31.7652174 40.5333333,27.2217391 40.5333333,21.6869565 C40.4511111,11.6913043 32.0644444,5 23.1844444,5 C14.4688889,5 6,11.6913043 6,21.7695652 C6,31.6826087 14.4688889,38.4565217 23.1844444,38.4565217 C24.7466667,38.4565217 26.1444444,38.2086957 27.5422222,37.7130435 C29.1044444,40.6869565 31.2422222,43 35.2711111,43 C41.9311111,43 42.8355556,36.8869565 42.5888889,35.0695652 L42.5888889,35.0695652 Z M30.9955556,30.1956522 C29.4333333,27.7173913 27.0488889,25.7347826 23.1844444,25.7347826 C20.8822222,25.7347826 19.1555556,26.3956522 17.9222222,27.3043478 L18.8266667,29.6173913 C19.2377778,29.5347826 19.5666667,29.4521739 20.06,29.4521739 C22.5266667,29.4521739 24.2533333,31.6 25.8977778,34.573913 C24.6644444,34.8217391 24.0066667,34.8217391 23.2666667,34.8217391 C17.1,34.8217391 14.4688889,30.3608696 14.4688889,21.6869565 C14.4688889,13.0130435 17.1,8.46956522 23.2666667,8.46956522 C29.5155556,8.46956522 32.1466667,12.9304348 32.1466667,21.6869565 C32.0644444,25.2391304 31.7355556,28.1304348 30.9955556,30.1956522 L30.9955556,30.1956522 Z" id="Shape" fill="#FFFFFF"></path>
        </g>
    </g>
</svg>