<?xml version="1.0" encoding="utf-8"?>
<!-- Generator: Adobe Illustrator 16.0.0, SVG Export Plug-In . SVG Version: 6.00 Build 0)  -->
<!DOCTYPE svg PUBLIC "-//W3C//DTD SVG 1.1//EN" "http://www.w3.org/Graphics/SVG/1.1/DTD/svg11.dtd">
<svg version="1.1" id="Layer_1" xmlns="http://www.w3.org/2000/svg"  x="0px" y="0px"
	 width="1100px" height="1100px" viewBox="0 0 1100 1100" enable-background="new 0 0 1100 1100" xml:space="preserve">
  <defs>
    <filter id="faceShadow" height="130%">
      <feGaussianBlur in="SourceAlpha" stdDeviation="15"/> <!-- stdDeviation is how much to blur -->
      <feOffset dx="0" dy="0" result="offsetblur"/> <!-- how much to offset -->
      <feMerge>
        <feMergeNode/> <!-- this contains the offset blurred image -->
        <feMergeNode in="SourceGraphic"/> <!-- this contains the element that the filter is applied to -->
      </feMerge>
    </filter>
  </defs>
  <defs>
    <filter id="dropShadow" height="150%">
      <feGaussianBlur in="SourceAlpha" stdDeviation="9"/> <!-- stdDeviation is how much to blur -->
      <feOffset dx="0" dy="0" result="offsetblur"/> <!-- how much to offset -->
      <feMerge>
        <feMergeNode/> <!-- this contains the offset blurred image -->
        <feMergeNode in="SourceGraphic"/> <!-- this contains the element that the filter is applied to -->
      </feMerge>
    </filter>
  </defs>
  <g id="book">
		<linearGradient id="book-fly_1_"
                    gradientUnits="userSpaceOnUse" x1="1189.1963" y1="1065.4463" x2="1189.1963" y2="1064.4463"
                    gradientTransform="matrix(650 0 0 -700 -772427.5 745852.5)">
		  <stop  offset="0" style="stop-color:#5D4037"/>
		  <stop  offset="0.45" style="stop-color:#4E342E"/>
		  <stop  offset="0.95" style="stop-color:#4E342E"/>
    </linearGradient>
    <polygon id="book-fly" fill="url(#book-fly_1_)"
             stroke="#4E342E" stroke-width="16"
             points="550,240 875,40 830,540 550,740 270,540 225,40"
             filter="url(#dropShadow)"/>
	<polygon id="book-bind" fill="#4E342E" stroke="#4E342E" stroke-width="32" points="539,238 561,238 561,740 539,740 	"/>
  </g>
  <g id="cat-face">
		<linearGradient id="face-frame_1_" gradientUnits="userSpaceOnUse"
                    x1="1189.9092" y1="1065.0781" x2="1189.9092" y2="1064.0781"
                    gradientTransform="matrix(800 0 0 -800 -951377.5 852172.5)">
		<stop  offset="0.05" style="stop-color:#9E9E9E"/>
		<stop  offset="0.6" style="stop-color:#BDBDBD"/>
		<stop  offset="0.95" style="stop-color:#BDBDBD"/>
	</linearGradient>
	<polygon id="face-frame" fill="url(#face-frame_1_)" stroke="#555555" stroke-width="24"
           points="550,310 950,110 900,710 550,910 200,710 150,110" filter="url(#faceShadow)"/>
	<g id="left-eye">
		<path fill="#B2EBF2" d="M497.382,453.661c0,0-38.477,60.156-110.303,41.055c-71.807-19.121-74.844-90.322-74.844-90.322
			s38.479-60.146,110.272-41.045C494.325,382.469,497.382,453.661,497.382,453.661z"/>
		<path fill="#80DEEA" d="M490.02,422.86c0,0-34.181,37.832-81.085,37.832c-50.928,0-81.143-73.945-81.143-73.945
			s33.486-39.297,94.756-23.438C478.671,377.801,490.02,422.86,490.02,422.86z"/>
		<path fill="#4C5359" d="M437.86,421.961c0,82.295-39.668,82.295-39.668,0C398.183,339.637,437.86,339.637,437.86,421.961z"/>
	</g>
	<g id="right-eye">
		<path fill="#B2EBF2" d="M676.002,364.38c71.797-19.102,110.283,41.045,110.283,41.045s-3.037,71.201-74.844,90.322
			c-71.826,19.102-110.313-41.054-110.313-41.054S604.195,383.501,676.002,364.38z"/>
		<path fill="#80DEEA" d="M675.973,364.341c61.271-15.854,94.756,23.438,94.756,23.438s-30.215,73.938-81.143,73.938
			c-46.904,0-81.084-37.832-81.084-37.832S619.85,378.833,675.973,364.341z"/>
		<path fill="#4C5359" d="M700.328,422.993c0,82.294-39.668,82.294-39.668,0C660.66,340.669,700.338,340.669,700.328,422.993z"/>
	</g>
	<path id="lips" fill="none" stroke="#555555" stroke-width="24" d="M711.421,816.698c-33.676,0-160.422-109.979-160.422-139.198
		c0,29.229-126.743,139.198-160.422,139.198"/>
	<path id="nose" fill="#505050" d="M523.783,599.061c4.683-0.313,8.917,0.604,13.146,3.021c0.563,0.313,2.354,1.394,2.823,1.81
		c0.563,0.521,4.457,3.578,5.218,4.577c0.391,0.479,4.104,4.979,4.104,4.979s3.54-3.771,4.166-4.41
		c1.076-1.063,2.084-1.748,2.867-2.33c2.276-1.729,4.606-3.271,7.229-4.764c1.836-1.063,4.994-2.039,6.684-2.271
		c0.472-0.063,1.725-0.229,2.275-0.313c6.393-0.913,14.65,1.664,19.332,4.362c5.178,2.979,8.736,7.363,11.49,12.854
		c0.604,1.229,1.994,4.494,2.263,5.305c1.456,4.354,1.793,9.84,1.367,15.271c-0.646,8.438-4.276,17.119-8.146,22.354
		c-0.783,1.04-2.575,4.078-4.75,6.698c-7.233,8.653-17.942,19.43-28.725,26.253c-3.021,1.913-14.604,8.257-14.604,8.257
		s-12.073-6.73-14-7.924c-12.207-7.572-25.692-18.307-33.225-30.435c-2.618-4.229-5.646-8.487-7.366-13.646
		c-0.812-2.371-1.521-4.409-2.084-7.052c-1.318-6.22-0.918-13.543,0.854-19.347c0.784-2.579,1.949-5.354,3.067-7.559
		c4.057-7.885,11.581-13.063,21.479-15.082C520.827,599.372,522.327,599.145,523.783,599.061"/>
	<g id="mustache">
		<path fill="none" stroke="#8D6E63" stroke-width="2" d="M646.615,701c0,55.273,134.18,100,300,100"/>
		<path fill="none" stroke="#8D6E63" stroke-width="2" d="M660.66,668.784c0,55.271,134.18,100,300,100"/>
		<path fill="none" stroke="#8D6E63" stroke-width="2" d="M453.66,701c0,55.273-134.18,100-300,100"/>
		<path fill="none" stroke="#8D6E63" stroke-width="2" d="M439.615,668.784c0,55.271-134.184,100-300,100"/>
	</g>
</g>
<g id="bow" filter="url(#dropShadow)">
	<path id="bow-l" fill="#5D4037" d="M531.422,1023.777c-29.605,12.559-70.137,29.496-95.584,41.774
		c-8.309,4.058-17.637-1.829-20.117-13.272c-7.113-34.729-7.113-70.901,0-105.629c2.481-11.445,11.811-17.33,20.117-13.273
		c25.448,12.279,65.979,29.217,95.584,41.775V1023.777z"/>
	<path id="bow-r" fill="#5D4037" d="M570.576,975.152c29.604-12.562,70.137-29.497,95.586-41.777
		c8.309-4.056,17.635,1.829,20.116,13.275c7.113,34.725,7.113,70.898,0,105.627c-2.481,11.443-11.81,17.331-20.116,13.272
		c-25.45-12.276-65.98-29.218-95.586-41.774V975.152L570.576,975.152z"/>
	<g id="bow-crease">
		<path fill="#4E342E" d="M464.934,1024.95c-3.573,0-6.693-2.632-7.213-6.272c-0.563-3.987,2.214-7.679,6.202-8.242l64.3-9.095
			c3.971-0.53,7.674,2.208,8.243,6.202c0.565,3.988-2.214,7.678-6.201,8.242l-64.301,9.094
			C465.619,1024.927,465.276,1024.95,464.934,1024.95z"/>
		<path fill="#4E342E" d="M529.252,997.66c-0.342,0-0.683-0.023-1.03-0.071l-64.299-9.094c-3.989-0.564-6.766-4.254-6.202-8.242
			c0.57-3.988,4.273-6.709,8.244-6.202l64.299,9.094c3.989,0.565,6.769,4.256,6.201,8.244
			C535.947,995.029,532.829,997.66,529.252,997.66z"/>
		<path fill="#4E342E" d="M637.064,973.979c3.573,0,6.693,2.633,7.213,6.271c0.563,3.989-2.213,7.679-6.201,8.243l-64.299,9.094
			c-3.973,0.533-7.676-2.207-8.244-6.2c-0.565-3.987,2.213-7.679,6.201-8.242l64.3-9.095
			C636.381,974.003,636.723,973.979,637.064,973.979z"/>
		<path fill="#4E342E" d="M572.746,1001.27c0.342,0,0.684,0.023,1.031,0.07l64.299,9.094c3.988,0.564,6.766,4.257,6.201,8.243
			c-0.57,3.988-4.273,6.71-8.243,6.201l-64.3-9.093c-3.988-0.565-6.768-4.254-6.201-8.243
			C566.05,1003.899,569.17,1001.27,572.746,1001.27z"/>
	</g>
	<path id="bow-knot" fill="#6D4C41" d="M580.218,1018.914c0,5.35-4.376,9.726-9.726,9.726h-38.898c-5.349,0-9.725-4.376-9.725-9.726
		v-38.899c0-5.349,4.375-9.726,9.725-9.726h38.898c5.35,0,9.726,4.376,9.726,9.726V1018.914z"/>
</g>
</svg>
