<?xml version="1.0" encoding="UTF-8" standalone="no"?>
<!-- Created with Inkscape (http://www.inkscape.org/) -->
<svg
   xmlns:svg="http://www.w3.org/2000/svg"
   xmlns="http://www.w3.org/2000/svg"
   version="1.0"
   width="176.52748"
   height="185.1386"
   id="svg2">
  <defs>

    <linearGradient id="gradBlue" x1="0" x2="0" y1="0" y2="1">
      <stop offset="0%"   stop-color="#07C"/>
      <stop offset="50%"  stop-color="#17afee"/>
      <stop offset="90%"  stop-color="#369"/>
      <stop offset="100%" stop-color="#07C"/>
    </linearGradient>
    <linearGradient id="gradGreen" x1="0" x2="0" y1="0" y2="1">
      <stop offset="0%"   stop-color="#0C7"/>
      <stop offset="50%"  stop-color="#17eeaf"/>
      <stop offset="90%"  stop-color="#396"/>
      <stop offset="100%" stop-color="#0C7"/>
    </linearGradient>
  </defs>
  <path
     d="M 47.243238,12.929372 L 47.243238,38.836954 L 68.578895,38.836954 L 77.341753,65.887518 L 12.191803,166.85089 L 44.195288,166.85089 L 90.676538,98.271996 L 121.15605,175.23276 L 169.16127,159.993 L 161.5414,136.37138 L 139.44375,143.22927 L 87.628587,12.929372 L 47.243238,12.929372 z "
     fill="#0C7"
    transform="translate(0 -6)"
     />
  <path
    d="M 47.243238,12.929372 L 47.243238,38.836954 L 68.578895,38.836954 L 77.341753,65.887518 L 12.191803,166.85089 L 44.195288,166.85089 L 90.676538,98.271996 L 121.15605,175.23276 L 169.16127,159.993 L 161.5414,136.37138 L 139.44375,143.22927 L 87.628587,12.929372 L 47.243238,12.929372 z "
    fill="#07C"
    transform="translate(0 6)"
  />
</svg>
