<?xml version="1.0" encoding="iso-8859-1"?>
<!DOCTYPE svg PUBLIC "-//W3C//DTD SVG 1.1//EN" "http://www.w3.org/Graphics/SVG/1.1/DTD/svg11.dtd">
<svg version="1.1" id="Capa_1" xmlns="http://www.w3.org/2000/svg" xmlns:xlink="http://www.w3.org/1999/xlink" x="0px" y="0px"
	 width="400" height="400" viewBox="0 0 400 400"
	xml:space="preserve">
	<linearGradient id="grad" x1="0" x2="0" y1="0" y2="1">
		<stop offset="0%"   stop-color="#DDDDDD"/>
		<stop offset="50%"  stop-color="#E8E8E8"/>
		<stop offset="90%"  stop-color="#CCCCCC"/>
		<stop offset="100%" stop-color="#DDDDDD"/>
	</linearGradient>
  <defs>
      <filter id="drop-shadow" x="-100%" y="-100%" width="300%" height="300%">
        <feGaussianBlur in="SourceAlpha" stdDeviation="4"/>
        <feOffset dx="0" dy="0" result="offsetblur"/>
        <feFlood flood-color="#000000"/>
        <feComposite in2="offsetblur" operator="in"/>
        <feMerge>
          <feMergeNode/>
          <feMergeNode in="SourceGraphic"/>
        </feMerge>
      </filter>
    </defs>
	<g filter="url(#drop-shadow)">
		<rect x="120" width="240" y="40"  height="320" fill="#f1f7fe" />
		<rect x="140" width="210" y="320" height="20" fill="#17afee"/>
		<path d="M282.449,316.811h-51.211V129.319c0-28.827-5.024-49.358-15.085-61.597C206.105,55.49,189.413,49.37,166.09,49.37
			c-22.952,0-42.108,8.73-57.468,26.179c-15.362,17.448-23.049,42.489-23.049,75.108v166.154H34.362V0l48.365,12.105v42.963h1.138
			c24.054-34.52,54.734-51.781,92.048-51.781c34.472,0,60.846,9.149,79.122,27.452c18.275,18.306,27.414,44.526,27.414,78.667
			V316.811z"
			fill="#2558AE"
			transform="translate(30 90), scale(.75)"/>
	</g>
</svg>
